<svg width="125" height="29" viewBox="0 0 125 29" fill="none" xmlns="http://www.w3.org/2000/svg">
<path d="M36.1831 8.02377H39.3387V20.7603H36.1831V8.02377ZM40.5904 15.9513C40.5904 12.8013 42.5258 10.9218 45.5131 10.9218C48.5004 10.9218 50.4358 12.8013 50.4358 15.9513C50.4358 19.1013 48.5425 20.9913 45.5131 20.9913C42.4838 20.9913 40.5904 19.1538 40.5904 15.9513ZM47.2697 15.9513C47.2697 14.2188 46.586 13.2003 45.5131 13.2003C44.4402 13.2003 43.767 14.2503 43.767 15.9513C43.767 17.6523 44.4297 18.6813 45.5131 18.6813C46.5965 18.6813 47.2697 17.7153 47.2697 15.9618V15.9513ZM51.6244 21.3798H54.6538C54.798 21.6995 55.0417 21.9642 55.3487 22.1345C55.6558 22.3047 56.0097 22.3715 56.3578 22.3248C57.5569 22.3248 58.1881 21.6738 58.1881 20.7288V18.9648H58.1249C57.8735 19.5054 57.4656 19.9584 56.9537 20.2654C56.4418 20.5723 55.8496 20.7191 55.2534 20.6868C52.9498 20.6868 51.4246 18.9333 51.4246 15.9198C51.4246 12.9063 52.8762 11.0058 55.2954 11.0058C55.9104 10.9817 56.5179 11.1458 57.0368 11.4761C57.5557 11.8064 57.961 12.2871 58.1986 12.8538V12.8538V11.1003H61.3542V20.6553C61.3542 22.9548 59.3241 24.3828 56.3263 24.3828C53.5388 24.3828 51.8033 23.1333 51.6244 21.3903V21.3798ZM58.1986 15.9408C58.1986 14.4078 57.4938 13.4418 56.3789 13.4418C55.2639 13.4418 54.5802 14.3973 54.5802 15.9408C54.5802 17.4843 55.2534 18.3558 56.3789 18.3558C57.5043 18.3558 58.1986 17.5053 58.1986 15.9513V15.9408ZM62.5428 15.9408C62.5428 12.7908 64.4782 10.9113 67.4655 10.9113C70.4528 10.9113 72.3987 12.7908 72.3987 15.9408C72.3987 19.0908 70.5054 20.9808 67.4655 20.9808C64.4256 20.9808 62.5428 19.1538 62.5428 15.9513V15.9408ZM69.2221 15.9408C69.2221 14.2083 68.5384 13.1898 67.4655 13.1898C66.3926 13.1898 65.772 14.2503 65.772 15.9618C65.772 17.6733 66.4347 18.6918 67.5076 18.6918C68.5805 18.6918 69.2221 17.7153 69.2221 15.9618V15.9408ZM73.5978 8.81127C73.5896 8.49323 73.6761 8.1799 73.8464 7.911C74.0167 7.6421 74.2632 7.42974 74.5546 7.30085C74.846 7.17195 75.1691 7.13232 75.4831 7.18697C75.7971 7.24163 76.0877 7.38811 76.3182 7.60785C76.5487 7.8276 76.7086 8.1107 76.7777 8.42128C76.8468 8.73186 76.822 9.05592 76.7063 9.3524C76.5907 9.64887 76.3895 9.90439 76.1282 10.0866C75.867 10.2688 75.5574 10.3694 75.2387 10.3758C75.0275 10.3903 74.8156 10.361 74.6162 10.2898C74.4168 10.2186 74.2344 10.107 74.0803 9.96207C73.9262 9.81712 73.8038 9.64193 73.7208 9.4475C73.6377 9.25308 73.5959 9.04361 73.5978 8.83227V8.81127ZM73.5978 11.1213H76.7534V20.7603H73.5978V11.1213ZM88.2082 15.9408C88.2082 19.0908 86.8092 20.8863 84.411 20.8863C83.796 20.9257 83.1837 20.7756 82.657 20.4564C82.1303 20.1371 81.7144 19.6641 81.4658 19.1013H81.4026V23.8473H78.2471V11.1003H81.4026V12.8223H81.4658C81.7029 12.2501 82.1108 11.7648 82.634 11.4323C83.1572 11.0997 83.7703 10.9362 84.3899 10.9638C86.8092 11.0058 88.2503 12.8118 88.2503 15.9618L88.2082 15.9408ZM85.0526 15.9408C85.0526 14.4078 84.3479 13.4313 83.2434 13.4313C82.1389 13.4313 81.4342 14.4183 81.4237 15.9408C81.4132 17.4633 82.1389 18.4398 83.2434 18.4398C84.3479 18.4398 85.0526 17.4843 85.0526 15.9618V15.9408ZM93.6253 10.9008C96.2444 10.9008 97.8327 12.1398 97.9064 14.1243H95.0348C95.0348 13.4418 94.4668 13.0113 93.5937 13.0113C92.7207 13.0113 92.3315 13.3473 92.3315 13.8408C92.3315 14.3343 92.6786 14.4918 93.3833 14.6388L95.4029 15.0483C97.3278 15.4578 98.1483 16.2348 98.1483 17.6943C98.1483 19.6893 96.3286 20.9703 93.6463 20.9703C90.9641 20.9703 89.2075 19.6893 89.0707 17.7258H92.1106C92.2053 18.4398 92.7733 18.8598 93.6989 18.8598C94.6245 18.8598 95.0453 18.5553 95.0453 18.0513C95.0453 17.5473 94.7508 17.4423 93.9934 17.2848L92.1737 16.8963C90.2909 16.5078 89.3021 15.5103 89.3021 14.0403C89.3232 12.1503 91.0167 10.9218 93.6253 10.9218V10.9008ZM108.677 20.7393H105.638V18.9438H105.574C105.407 19.5466 105.039 20.0742 104.53 20.439C104.021 20.8039 103.402 20.9839 102.776 20.9493C102.297 20.9765 101.817 20.9006 101.37 20.7269C100.922 20.5531 100.517 20.2855 100.182 19.9421C99.8472 19.5987 99.5899 19.1875 99.4277 18.7363C99.2656 18.2851 99.2023 17.8045 99.2422 17.3268V11.1003H102.398V16.6023C102.398 17.7468 102.987 18.3558 103.965 18.3558C104.194 18.3562 104.421 18.3077 104.63 18.2135C104.839 18.1194 105.026 17.9816 105.177 17.8096C105.329 17.6376 105.442 17.4353 105.508 17.2162C105.575 16.9971 105.594 16.7663 105.564 16.5393V11.1003H108.719L108.677 20.7393ZM110.203 11.1003H113.253V12.9588H113.316C113.484 12.3639 113.844 11.8413 114.341 11.4727C114.837 11.1041 115.443 10.9103 116.061 10.9218C116.691 10.8714 117.317 11.0595 117.814 11.4486C118.311 11.8378 118.643 12.3994 118.744 13.0218H118.807C118.998 12.3928 119.393 11.845 119.93 11.4648C120.467 11.0846 121.115 10.8936 121.773 10.9218C122.202 10.9074 122.63 10.9833 123.027 11.1445C123.425 11.3058 123.785 11.5488 124.082 11.8577C124.38 12.1667 124.609 12.5347 124.755 12.9379C124.901 13.341 124.96 13.7703 124.929 14.1978V20.7603H121.773V15.0378C121.773 13.9878 121.3 13.5048 120.416 13.5048C120.219 13.5031 120.024 13.5436 119.844 13.6236C119.664 13.7036 119.503 13.8213 119.373 13.9685C119.242 14.1158 119.145 14.2894 119.087 14.4774C119.029 14.6655 119.013 14.8637 119.038 15.0588V20.7603H116.04V14.9958C116.04 14.0298 115.567 13.5048 114.705 13.5048C114.505 13.5048 114.308 13.5471 114.127 13.6287C113.945 13.7103 113.783 13.8295 113.65 13.9783C113.518 14.1271 113.419 14.3023 113.36 14.4921C113.3 14.682 113.282 14.8823 113.306 15.0798V20.7603H110.15L110.203 11.1003Z" fill="white"/>
<path d="M27.3578 8.60074C26.8225 7.37891 26.114 6.24027 25.2541 5.21974C23.9828 3.66609 22.3964 2.3988 20.5992 1.50128C18.802 0.603749 16.8348 0.0963363 14.827 0.0124328C12.8191 -0.0714706 10.8163 0.270036 8.95022 1.01448C7.08415 1.75892 5.39718 2.88942 4.00033 4.33157C2.60348 5.77372 1.52843 7.49483 0.845927 9.3816C0.163425 11.2684 -0.111052 13.278 0.0405647 15.2783C0.192182 17.2786 0.766454 19.2242 1.72558 20.987C2.68471 22.7498 4.00695 24.2898 5.60527 25.5057C6.63085 26.3015 7.76407 26.9484 8.97123 27.4272C10.6637 28.1196 12.4751 28.4762 14.3042 28.4772C18.0797 28.4689 21.698 26.9666 24.3657 24.2996C27.0335 21.6326 28.5331 18.0186 28.5359 14.2497C28.5386 12.3057 28.1375 10.3822 27.3578 8.60074V8.60074ZM14.2937 2.89924C15.9362 2.89906 17.5589 3.25743 19.0481 3.94924V3.94924C18.6849 4.10586 18.3031 4.21526 17.9121 4.27474C16.6252 4.46069 15.4331 5.05707 14.5137 5.97487C13.5943 6.89267 12.9968 8.08266 12.8105 9.36724C12.7288 10.0877 12.4005 10.7579 11.8812 11.2648C11.3619 11.7717 10.6833 12.0843 9.95998 12.1497C8.67313 12.3357 7.48102 12.9321 6.5616 13.8499C5.64217 14.7677 5.04473 15.9577 4.85845 17.2422C4.79539 17.9272 4.5026 18.571 4.02748 19.0692V19.0692C3.20772 17.3402 2.83946 15.4322 2.95697 13.5228C3.07449 11.6135 3.67395 9.76487 4.69959 8.14897C5.72523 6.53307 7.1437 5.20243 8.82299 4.28088C10.5023 3.35932 12.3878 2.87681 14.3042 2.87824L14.2937 2.89924ZM5.59476 21.5997C5.72098 21.4842 5.84721 21.3792 5.97343 21.2532C6.90922 20.3476 7.5099 19.152 7.67744 17.8617C7.74538 17.1364 8.06979 16.459 8.59256 15.9507C9.09561 15.428 9.77272 15.1069 10.4964 15.0477C11.7833 14.8618 12.9754 14.2654 13.8948 13.3476C14.8142 12.4298 15.4117 11.2398 15.598 9.95524C15.6435 9.19663 15.9696 8.48192 16.5131 7.94974C17.0285 7.43718 17.7121 7.12769 18.438 7.07824C19.6202 6.91587 20.7228 6.39124 21.5936 5.57674C22.5851 6.39791 23.4252 7.38578 24.076 8.49574C24.036 8.54965 23.9901 8.59896 23.9392 8.64274C23.4371 9.17004 22.7609 9.49824 22.0354 9.56674C20.7472 9.74944 19.5533 10.3448 18.6333 11.2632C17.7132 12.1816 17.1169 13.3733 16.9338 14.6592C16.8597 15.3821 16.5375 16.0571 16.0218 16.57C15.5062 17.0828 14.8287 17.4019 14.1043 17.4732C12.8137 17.6578 11.6172 18.253 10.6924 19.1704C9.76766 20.0878 9.16404 21.2786 8.97123 22.5657C8.91463 23.0789 8.73808 23.5716 8.45582 24.0042C7.37661 23.3646 6.41004 22.5523 5.59476 21.5997V21.5997ZM14.2937 25.6527C13.2263 25.6539 12.1641 25.5054 11.1381 25.2117C11.489 24.5586 11.7172 23.8469 11.8113 23.1117C11.885 22.3905 12.2057 21.7167 12.7192 21.2041C13.2328 20.6914 13.9077 20.3713 14.6303 20.2977C15.919 20.1139 17.1135 19.5184 18.035 18.6004C18.9565 17.6825 19.5555 16.4913 19.7423 15.2052C19.816 14.484 20.1367 13.8102 20.6503 13.2976C21.1638 12.7849 21.8388 12.4648 22.5613 12.3912C23.5311 12.2653 24.4555 11.9049 25.2541 11.3412C25.6975 13.019 25.75 14.7759 25.4076 16.4772C25.0652 18.1784 24.337 19.7787 23.2788 21.1553C22.2206 22.532 20.8606 23.6484 19.3031 24.4189C17.7456 25.1894 16.0319 25.5935 14.2937 25.6002V25.6527Z" fill="white"/>
</svg>
