<svg width="124" height="25" viewBox="0 0 124 25" fill="none" xmlns="http://www.w3.org/2000/svg">
<path d="M39.5793 19.973C38.957 20.0066 38.3415 19.8307 37.8321 19.4738C37.6192 19.317 37.448 19.111 37.3331 18.8736C37.2183 18.6363 37.1633 18.3747 37.173 18.1114V8.47065C37.1679 8.42983 37.1722 8.3884 37.1857 8.3495C37.1991 8.31061 37.2213 8.27527 37.2506 8.24619C37.2798 8.21711 37.3154 8.19504 37.3545 8.18167C37.3936 8.1683 37.4353 8.16399 37.4764 8.16905H39.2341C39.4328 8.16905 39.527 8.27305 39.527 8.47065V17.3626C39.527 17.7578 39.7049 17.9554 40.071 17.9554C40.2263 17.9618 40.3815 17.9443 40.5314 17.9034C40.7406 17.9034 40.8557 17.9658 40.8662 18.153L41.0231 19.453C41.0307 19.4909 41.0299 19.53 41.021 19.5676C41.0121 19.6052 40.9951 19.6405 40.9714 19.671C40.9476 19.7016 40.9175 19.7267 40.8831 19.7447C40.8487 19.7627 40.8108 19.7732 40.772 19.7754C40.387 19.9019 39.9847 19.9685 39.5793 19.973V19.973Z" fill="white"/>
<path d="M49.4662 18.8599C48.583 19.5853 47.4732 19.9821 46.3275 19.9821C45.1819 19.9821 44.072 19.5853 43.1888 18.8599C42.4125 18.0809 41.9771 17.0288 41.9771 15.9323C41.9771 14.8358 42.4125 13.7837 43.1888 13.0047C44.0737 12.2831 45.1829 11.8887 46.3275 11.8887C47.4721 11.8887 48.5813 12.2831 49.4662 13.0047C50.2246 13.7909 50.648 14.8379 50.648 15.9271C50.648 17.0163 50.2246 18.0633 49.4662 18.8495V18.8599ZM44.8419 17.4871C45.2517 17.8562 45.785 18.0605 46.338 18.0605C46.891 18.0605 47.4242 17.8562 47.8341 17.4871C48.205 17.0631 48.4094 16.5202 48.4094 15.9583C48.4094 15.3964 48.205 14.8535 47.8341 14.4295C47.4242 14.0604 46.891 13.856 46.338 13.856C45.785 13.856 45.2517 14.0604 44.8419 14.4295C44.4709 14.8535 44.2666 15.3964 44.2666 15.9583C44.2666 16.5202 44.4709 17.0631 44.8419 17.4871Z" fill="white"/>
<path d="M60.3258 12.1519C60.5246 12.1519 60.6188 12.2559 60.6188 12.4535V19.9103C60.6371 20.4136 60.5423 20.9146 60.3414 21.377C60.1406 21.8393 59.8386 22.2513 59.4575 22.5831C58.6115 23.3002 57.5236 23.6718 56.4129 23.6231C55.4097 23.6582 54.4199 23.3859 53.5776 22.8431C53.2179 22.6084 52.9106 22.3025 52.6749 21.9447C52.4391 21.5869 52.2798 21.1847 52.207 20.7631C52.207 20.5551 52.207 20.4615 52.4895 20.4615H54.2472C54.3218 20.4641 54.3941 20.488 54.4554 20.5304C54.5166 20.5729 54.5643 20.632 54.5925 20.7007C54.7065 21.0166 54.9337 21.2795 55.2307 21.4391C55.5926 21.6247 55.9953 21.7177 56.4024 21.7095C56.6481 21.7229 56.894 21.6875 57.1257 21.6054C57.3574 21.5232 57.5704 21.396 57.7521 21.2311C57.9181 21.0587 58.0472 20.8546 58.1318 20.6311C58.2163 20.4077 58.2544 20.1696 58.2438 19.9311V19.2759C57.6145 19.7361 56.8486 19.974 56.0677 19.9519C55.5211 19.9717 54.9762 19.8815 54.4656 19.6867C53.955 19.4919 53.4892 19.1965 53.0963 18.8183C52.342 18.0426 51.9204 17.006 51.9204 15.9271C51.9204 14.8483 52.342 13.8116 53.0963 13.0359C53.4912 12.6611 53.9574 12.3686 54.4677 12.1757C54.9781 11.9828 55.522 11.8934 56.0677 11.9127C56.8712 11.8917 57.6577 12.1449 58.2961 12.6303V12.4639C58.2913 12.4241 58.2955 12.3837 58.3084 12.3456C58.3213 12.3076 58.3425 12.2728 58.3705 12.244C58.3986 12.2151 58.4327 12.1928 58.4706 12.1787C58.5084 12.1645 58.5488 12.159 58.5891 12.1623L60.3258 12.1519ZM56.2664 18.1007C56.536 18.109 56.8041 18.0584 57.0517 17.9524C57.2994 17.8463 57.5206 17.6875 57.6998 17.4871C58.0476 17.0406 58.2364 16.4919 58.2364 15.9271C58.2364 15.3624 58.0476 14.8137 57.6998 14.3671C57.5213 14.1695 57.3014 14.013 57.0556 13.9088C56.8098 13.8046 56.544 13.7552 56.2769 13.7639C56.0043 13.7554 55.733 13.8059 55.4819 13.9118C55.2308 14.0178 55.0059 14.1767 54.8226 14.3775C54.4373 14.8047 54.2346 15.3643 54.2577 15.9375C54.2388 16.5052 54.4369 17.0589 54.8122 17.4871C54.9958 17.6875 55.2209 17.846 55.4719 17.9519C55.7228 18.0578 55.9939 18.1086 56.2664 18.1007V18.1007Z" fill="white"/>
<path d="M69.6477 18.8598C68.7628 19.5814 67.6536 19.9758 66.509 19.9758C65.3644 19.9758 64.2552 19.5814 63.3703 18.8598C62.6112 18.0719 62.1875 17.0231 62.1875 15.9322C62.1875 14.8413 62.6112 13.7925 63.3703 13.0046C64.256 12.2848 65.3649 11.8916 66.509 11.8916C67.653 11.8916 68.7619 12.2848 69.6477 13.0046C70.4061 13.7907 70.8295 14.8378 70.8295 15.927C70.8295 17.0162 70.4061 18.0632 69.6477 18.8494V18.8598ZM65.0129 17.487C65.2134 17.6767 65.4499 17.8249 65.7085 17.9231C65.9671 18.0212 66.2427 18.0674 66.5194 18.059C66.7944 18.0661 67.0681 18.0192 67.3248 17.921C67.5815 17.8229 67.8162 17.6754 68.0156 17.487C68.3805 17.0602 68.5808 16.5183 68.5808 15.9582C68.5808 15.3981 68.3805 14.8562 68.0156 14.4294C67.8162 14.241 67.5815 14.0935 67.3248 13.9953C67.0681 13.8972 66.7944 13.8503 66.5194 13.8574C66.2427 13.8489 65.9671 13.8951 65.7085 13.9933C65.4499 14.0915 65.2134 14.2397 65.0129 14.4294C64.648 14.8562 64.4476 15.3981 64.4476 15.9582C64.4476 16.5183 64.648 17.0602 65.0129 17.487V17.487Z" fill="white"/>
<path d="M74.6073 10.3841C74.3307 10.6248 73.9757 10.7574 73.6081 10.7574C73.2406 10.7574 72.8855 10.6248 72.609 10.3841C72.4836 10.2665 72.3837 10.1247 72.3154 9.96729C72.2471 9.80992 72.2119 9.64034 72.2119 9.46895C72.2119 9.29756 72.2471 9.12798 72.3154 8.97061C72.3837 8.81323 72.4836 8.67138 72.609 8.55375C72.8884 8.31914 73.2424 8.19043 73.6081 8.19043C73.9739 8.19043 74.3279 8.31914 74.6073 8.55375C74.7327 8.67138 74.8326 8.81323 74.9009 8.97061C74.9691 9.12798 75.0044 9.29756 75.0044 9.46895C75.0044 9.64034 74.9691 9.80992 74.9009 9.96729C74.8326 10.1247 74.7327 10.2665 74.6073 10.3841V10.3841ZM74.827 19.9729C74.2051 20.0033 73.5906 19.8277 73.0798 19.4737C72.8702 19.3146 72.7019 19.1079 72.589 18.8708C72.4762 18.6338 72.422 18.3734 72.4311 18.1113V12.4537C72.426 12.4129 72.4304 12.3715 72.4438 12.3326C72.4573 12.2937 72.4795 12.2584 72.5087 12.2293C72.538 12.2002 72.5735 12.1781 72.6127 12.1648C72.6518 12.1514 72.6935 12.1471 72.7345 12.1521H74.4922C74.691 12.1521 74.7852 12.2561 74.7852 12.4537V17.3626C74.7852 17.7578 74.963 17.9554 75.3187 17.9554C75.4774 17.961 75.636 17.9435 75.7895 17.9034C75.9988 17.9034 76.1139 17.9657 76.1243 18.1529L76.2813 19.4529C76.2888 19.4909 76.2881 19.5299 76.2792 19.5675C76.2702 19.6051 76.2533 19.6404 76.2295 19.6709C76.2057 19.7015 76.1756 19.7266 76.1412 19.7446C76.1068 19.7626 76.069 19.7731 76.0302 19.7754C75.6418 19.9025 75.2359 19.9691 74.827 19.9729V19.9729Z" fill="white"/>
<path d="M82.7468 11.902C83.2958 11.8805 83.8436 11.9688 84.3576 12.1617C84.8716 12.3547 85.3414 12.6483 85.739 13.0252C86.4788 13.8145 86.8902 14.8532 86.8902 15.932C86.8902 17.0108 86.4788 18.0495 85.739 18.8388C85.3433 19.2191 84.8741 19.5156 84.3598 19.7104C83.8454 19.9053 83.2967 19.9944 82.7468 19.9724C81.9633 19.9897 81.1955 19.7524 80.5601 19.2964V23.0508C80.5601 23.2484 80.4555 23.342 80.2567 23.342H78.499C78.4589 23.3495 78.4176 23.3471 78.3786 23.3351C78.3397 23.3231 78.3042 23.3018 78.2754 23.2732C78.2465 23.2445 78.2251 23.2093 78.2131 23.1705C78.201 23.1318 78.1986 23.0907 78.2061 23.0508V14.5228C78.2184 14.4394 78.2109 14.3543 78.1843 14.2743C78.1576 14.1942 78.1125 14.1215 78.0525 14.0619C77.9925 14.0023 77.9194 13.9574 77.8389 13.9309C77.7584 13.9044 77.6727 13.897 77.5888 13.9092H77.2436C77.0134 13.9092 76.8983 13.826 76.8983 13.6596V12.4324C76.8929 12.3565 76.9138 12.281 76.9576 12.2185C77.0014 12.1561 77.0654 12.1104 77.1389 12.0892C77.5008 11.9585 77.8839 11.895 78.2689 11.902C78.6528 11.8682 79.0382 11.9492 79.3755 12.1345C79.7129 12.3197 79.987 12.6009 80.1626 12.942C80.4996 12.6032 80.9025 12.3362 81.3469 12.1573C81.7912 11.9785 82.2675 11.8917 82.7468 11.902ZM81.1146 17.4868C81.3012 17.6806 81.5253 17.8349 81.7734 17.9402C82.0216 18.0456 82.2886 18.0999 82.5584 18.0999C82.8283 18.0999 83.0953 18.0456 83.3435 17.9402C83.5916 17.8349 83.8157 17.6806 84.0022 17.4868C84.3952 17.0512 84.6017 16.4803 84.5777 15.8956C84.6051 15.3105 84.3982 14.7383 84.0022 14.3044C83.8157 14.1106 83.5916 13.9564 83.3435 13.851C83.0953 13.7457 82.8283 13.6913 82.5584 13.6913C82.2886 13.6913 82.0216 13.7457 81.7734 13.851C81.5253 13.9564 81.3012 14.1106 81.1146 14.3044C80.734 14.746 80.5358 15.3146 80.5601 15.8956C80.5389 16.4762 80.7367 17.0437 81.1146 17.4868Z" fill="white"/>
<path d="M91.8283 19.9728C90.889 20.0112 89.9577 19.7879 89.1394 19.328C88.8111 19.1315 88.5315 18.8639 88.3214 18.5452C88.1113 18.2266 87.9761 17.865 87.9258 17.4872C87.9258 17.2792 87.999 17.1752 88.2292 17.1752H89.7672C89.8403 17.1781 89.9113 17.2009 89.9722 17.2413C90.0331 17.2817 90.0816 17.338 90.1124 17.404C90.3321 17.9656 90.9076 18.2464 91.8283 18.2464C92.1494 18.261 92.4692 18.1967 92.7594 18.0592C92.8596 18.0143 92.9456 17.9431 93.0082 17.8534C93.0709 17.7636 93.1078 17.6586 93.1151 17.5496C93.1151 17.2792 92.9477 17.092 92.6129 16.9672C92.2158 16.8359 91.8053 16.7487 91.3888 16.7072C90.8955 16.6517 90.4063 16.5649 89.9241 16.4472C89.4552 16.3417 89.0289 16.0991 88.7 15.7505C88.5063 15.5135 88.3638 15.2395 88.2812 14.9455C88.1986 14.6514 88.1778 14.3436 88.22 14.0413C88.2622 13.7389 88.3665 13.4483 88.5265 13.1877C88.6865 12.9271 88.8987 12.702 89.1499 12.5265C89.904 12.0489 90.7888 11.8163 91.6818 11.8609C92.5464 11.8318 93.4018 12.0444 94.1509 12.4745C94.4528 12.6444 94.7128 12.8792 94.9118 13.1616C95.1109 13.4441 95.2441 13.7672 95.3018 14.1073C95.3018 14.3152 95.2076 14.4192 95.0193 14.4192H93.4708C93.4056 14.4231 93.3408 14.4073 93.2848 14.3739C93.2288 14.3405 93.1842 14.291 93.157 14.232C93.0535 13.9857 92.8587 13.7884 92.6129 13.6809C92.3357 13.5366 92.026 13.4651 91.7132 13.4728C91.4065 13.4563 91.1005 13.5171 90.8239 13.6497C90.7264 13.687 90.6424 13.7526 90.5827 13.8378C90.523 13.9231 90.4904 14.0242 90.4891 14.1281C90.4958 14.2703 90.5481 14.4066 90.6385 14.5171C90.7289 14.6275 90.8525 14.7062 90.9913 14.7417C91.393 14.8922 91.8107 14.9968 92.2363 15.0536C92.7256 15.1176 93.2111 15.2079 93.6906 15.324C94.1594 15.4295 94.5858 15.6722 94.9146 16.0208C95.0906 16.2129 95.2264 16.4377 95.3144 16.6822C95.4024 16.9268 95.4408 17.1863 95.4273 17.4456C95.4363 17.8052 95.3514 18.1608 95.1809 18.478C95.0104 18.7952 94.76 19.063 94.4543 19.2552C93.6726 19.7541 92.7566 20.0044 91.8283 19.9728V19.9728Z" fill="white"/>
<path d="M106.486 19.4531C106.492 19.4901 106.49 19.5278 106.482 19.5641C106.473 19.6004 106.456 19.6346 106.434 19.6647C106.412 19.6947 106.383 19.72 106.351 19.739C106.319 19.7581 106.283 19.7705 106.245 19.7755C105.863 19.8995 105.465 19.9661 105.063 19.9731C104.666 20.0141 104.264 19.9523 103.897 19.7938C103.531 19.6353 103.212 19.3854 102.971 19.0683C102.232 19.6999 101.276 20.024 100.303 19.9731C99.8509 19.9938 99.3997 19.9203 98.978 19.7573C98.5564 19.5944 98.1738 19.3455 97.8546 19.0267C97.5377 18.6928 97.2919 18.2986 97.1319 17.8679C96.9719 17.4373 96.901 16.9789 96.9235 16.5203V12.4539C96.9235 12.2563 97.0177 12.1523 97.2164 12.1523H98.9741C99.1729 12.1523 99.2671 12.2563 99.2671 12.4539V16.2083C99.2479 16.6761 99.4088 17.1335 99.7169 17.4875C99.8707 17.6497 100.058 17.7773 100.265 17.8616C100.473 17.9459 100.696 17.985 100.92 17.9763C101.149 17.9863 101.378 17.951 101.594 17.8725C101.809 17.7939 102.007 17.6737 102.176 17.5187C102.335 17.3554 102.459 17.1613 102.54 16.9485C102.621 16.7356 102.657 16.5085 102.646 16.2811V12.4539C102.646 12.2563 102.741 12.1523 102.939 12.1523H104.718C104.917 12.1523 105.011 12.2563 105.011 12.4539V17.3523C105.011 17.7579 105.189 17.9555 105.534 17.9555C105.696 17.9618 105.858 17.9443 106.015 17.9035C106.055 17.8925 106.096 17.8905 106.137 17.8978C106.177 17.905 106.216 17.9212 106.249 17.9452C106.282 17.9692 106.309 18.0004 106.329 18.0364C106.348 18.0724 106.359 18.1123 106.361 18.1531L106.486 19.4531Z" fill="white"/>
<path d="M123.111 19.453C123.12 19.4903 123.121 19.5291 123.113 19.5667C123.106 19.6043 123.09 19.6398 123.067 19.6707C123.044 19.7015 123.014 19.7269 122.98 19.745C122.946 19.7631 122.909 19.7735 122.87 19.7754C122.481 19.9011 122.076 19.9677 121.667 19.973C121.045 20.0049 120.43 19.8292 119.92 19.4738C119.699 19.3216 119.52 19.1176 119.397 18.8799C119.275 18.6423 119.214 18.3783 119.219 18.1114V15.6674C119.241 15.2011 119.084 14.7438 118.779 14.3882C118.633 14.2257 118.451 14.0975 118.249 14.013C118.046 13.9285 117.827 13.8897 117.608 13.8994C117.41 13.892 117.213 13.9293 117.031 14.0086C116.85 14.0878 116.689 14.207 116.561 14.357C116.285 14.7055 116.144 15.141 116.164 15.5842V19.4218C116.164 19.6194 116.07 19.7234 115.871 19.7234H114.103C114.062 19.7285 114.02 19.7242 113.981 19.7108C113.942 19.6974 113.906 19.6753 113.877 19.6463C113.848 19.6172 113.825 19.5819 113.812 19.543C113.798 19.5041 113.794 19.4626 113.799 19.4218V15.6674C113.822 15.2062 113.677 14.7521 113.391 14.3882C113.264 14.2354 113.104 14.1123 112.923 14.0278C112.742 13.9433 112.545 13.8995 112.345 13.8994C112.132 13.8909 111.919 13.9272 111.72 14.006C111.522 14.0849 111.343 14.2045 111.194 14.357C110.895 14.6944 110.741 15.1351 110.765 15.5842V19.4218C110.77 19.4626 110.766 19.5041 110.752 19.543C110.739 19.5819 110.717 19.6172 110.688 19.6463C110.658 19.6753 110.623 19.6974 110.584 19.7108C110.544 19.7242 110.503 19.7285 110.462 19.7234H108.756C108.558 19.7234 108.463 19.6194 108.463 19.4218V14.5234C108.476 14.44 108.468 14.3549 108.442 14.2748C108.415 14.1948 108.37 14.1221 108.31 14.0625C108.25 14.0029 108.177 13.958 108.096 13.9315C108.016 13.905 107.93 13.8976 107.846 13.9098H107.501C107.271 13.9098 107.156 13.8266 107.156 13.6602V12.433C107.15 12.3571 107.171 12.2816 107.215 12.2191C107.259 12.1567 107.323 12.111 107.396 12.0898C107.758 11.959 108.141 11.8956 108.526 11.9026C108.896 11.8713 109.267 11.9445 109.596 12.1138C109.926 12.2831 110.2 12.5416 110.388 12.8594C110.741 12.5269 111.16 12.2703 111.617 12.1056C112.074 11.941 112.561 11.8719 113.046 11.9026C113.517 11.8797 113.987 11.9676 114.418 12.1592C114.849 12.3507 115.228 12.6405 115.526 13.005C115.872 12.6309 116.297 12.338 116.771 12.1473C117.245 11.9567 117.756 11.8731 118.267 11.9026C118.723 11.8814 119.179 11.9545 119.606 12.1174C120.033 12.2803 120.421 12.5294 120.746 12.849C121.064 13.1823 121.311 13.5763 121.471 14.0072C121.631 14.438 121.701 14.8967 121.677 15.3554V17.3626C121.677 17.7578 121.855 17.9554 122.19 17.9554C122.352 17.9629 122.515 17.9454 122.671 17.9034C122.888 17.9034 123.003 17.9866 123.017 18.153L123.111 19.453Z" fill="white"/>
<path d="M0.428957 10.8001C1.20084 7.71617 2.9885 4.97758 5.50729 3.02041C8.02608 1.06323 11.1312 0 14.3282 0C17.5252 0 20.6303 1.06323 23.1491 3.02041C25.6679 4.97758 27.4556 7.71617 28.2275 10.8001H26.972C24.8541 10.7691 22.7796 11.3983 21.0398 12.5993C20.9394 12.6716 20.8346 12.7376 20.726 12.7969H20.5795C20.4708 12.7376 20.366 12.6716 20.2656 12.5993C18.5104 11.4261 16.4433 10.7995 14.3282 10.7995C12.2131 10.7995 10.146 11.4261 8.39082 12.5993C8.29041 12.6716 8.18559 12.7376 8.07695 12.7969H7.93048C7.82184 12.7376 7.71701 12.6716 7.61661 12.5993C5.87685 11.3983 3.80236 10.7691 1.68444 10.8001H0.428957ZM24.7121 17.3209C25.3566 16.822 26.1554 16.561 26.972 16.5825H28.6564V13.2441H26.972C25.5337 13.2268 24.1282 13.6718 22.9649 14.5129C22.3103 14.9927 21.5183 15.2515 20.705 15.2515C19.8917 15.2515 19.0998 14.9927 18.4452 14.5129C17.2524 13.6875 15.8339 13.2451 14.3805 13.2451C12.9272 13.2451 11.5087 13.6875 10.3159 14.5129C9.66127 14.9927 8.86933 15.2515 8.05602 15.2515C7.24272 15.2515 6.45078 14.9927 5.79615 14.5129C4.61851 13.6611 3.1929 13.2155 1.73675 13.2441H0V16.5825H1.68444C2.50104 16.561 3.29982 16.822 3.94431 17.3209C5.13494 18.1468 6.55184 18.5897 8.00371 18.5897C9.45558 18.5897 10.8725 18.1468 12.0631 17.3209C12.7084 16.8235 13.5066 16.5627 14.323 16.5825C15.1398 16.5592 15.9392 16.8204 16.5829 17.3209C17.7757 18.1463 19.1941 18.5888 20.6475 18.5888C22.1008 18.5888 23.5193 18.1463 24.7121 17.3209V17.3209ZM24.7121 23.2905C25.3566 22.7916 26.1554 22.5306 26.972 22.5521H28.6564V19.2137H26.972C25.5337 19.1964 24.1282 19.6414 22.9649 20.4825C22.3103 20.9623 21.5183 21.2211 20.705 21.2211C19.8917 21.2211 19.0998 20.9623 18.4452 20.4825C17.2524 19.6571 15.8339 19.2147 14.3805 19.2147C12.9272 19.2147 11.5087 19.6571 10.3159 20.4825C9.66127 20.9623 8.86933 21.2211 8.05602 21.2211C7.24272 21.2211 6.45078 20.9623 5.79615 20.4825C4.61851 19.6307 3.1929 19.1851 1.73675 19.2137H0V22.5521H1.68444C2.50104 22.5306 3.29982 22.7916 3.94431 23.2905C5.13494 24.1164 6.55184 24.5593 8.00371 24.5593C9.45558 24.5593 10.8725 24.1164 12.0631 23.2905C12.7084 22.7931 13.5066 22.5323 14.323 22.5521C15.1398 22.5288 15.9392 22.79 16.5829 23.2905C17.7757 24.1159 19.1941 24.5584 20.6475 24.5584C22.1008 24.5584 23.5193 24.1159 24.7121 23.2905V23.2905Z" fill="white"/>
</svg>
