<svg width="137" height="31" viewBox="0 0 137 31" fill="none" xmlns="http://www.w3.org/2000/svg">
<path d="M32.8916 7.26074H36.0472V22.5777H32.8916V7.26074Z" fill="white"/>
<path d="M37.8145 17.3305C37.8145 16.2285 38.1392 15.1513 38.7474 14.2355C39.3556 13.3197 40.2199 12.6064 41.2308 12.1862C42.2417 11.7659 43.3537 11.6576 44.4257 11.8749C45.4978 12.0922 46.4817 12.6254 47.2527 13.4069C48.0238 14.1883 48.5472 15.1829 48.7567 16.2645C48.9662 17.3461 48.8524 18.466 48.4295 19.4823C48.0067 20.4986 47.294 21.3655 46.3817 21.9732C45.4695 22.5808 44.3987 22.9018 43.3052 22.8955C42.5799 22.9013 41.8608 22.761 41.19 22.4829C40.5192 22.2049 39.9102 21.7947 39.3988 21.2764C38.8874 20.758 38.4838 20.142 38.2118 19.4645C37.9397 18.7869 37.8046 18.0614 37.8145 17.3305V17.3305ZM45.7245 17.3305C45.7121 16.8555 45.5609 16.3946 45.29 16.0056C45.019 15.6166 44.6403 15.3168 44.2011 15.1436C43.7619 14.9704 43.2818 14.9315 42.8209 15.0318C42.3599 15.1321 41.9385 15.3671 41.6094 15.7075C41.2802 16.0479 41.058 16.4786 40.9705 16.9456C40.8829 17.4125 40.934 17.8952 41.1172 18.3331C41.3004 18.771 41.6077 19.1448 42.0006 19.4076C42.3935 19.6705 42.8546 19.8108 43.3262 19.8109C43.6473 19.8172 43.9662 19.7567 44.2631 19.6332C44.5599 19.5097 44.8283 19.3258 45.0514 19.093C45.2745 18.8602 45.4475 18.5835 45.5597 18.2803C45.6719 17.977 45.7209 17.6537 45.7034 17.3305H45.7245Z" fill="white"/>
<path d="M61.2814 12.0841V22.0587C61.2814 25.5778 58.5466 27.0724 55.7802 27.0724C54.8045 27.1532 53.8257 26.9578 52.9541 26.5083C52.0826 26.0589 51.3528 25.3732 50.847 24.5285L53.5082 22.9809C53.7239 23.419 54.0669 23.7805 54.4916 24.0172C54.9163 24.254 55.4025 24.3546 55.8854 24.3059C56.193 24.344 56.5052 24.3133 56.7997 24.2157C57.0942 24.1181 57.3636 23.9562 57.5887 23.7415C57.8138 23.5268 57.9891 23.2646 58.102 22.9737C58.2148 22.6828 58.2625 22.3703 58.2416 22.0587V21.0941C57.8744 21.5427 57.4084 21.899 56.8807 22.1345C56.3531 22.37 55.7782 22.4783 55.2017 22.4509C53.8068 22.4509 52.4691 21.8925 51.4828 20.8985C50.4965 19.9046 49.9424 18.5565 49.9424 17.1509C49.9424 15.7452 50.4965 14.3971 51.4828 13.4032C52.4691 12.4092 53.8068 11.8509 55.2017 11.8509C55.7782 11.8234 56.3531 11.9317 56.8807 12.1672C57.4084 12.4027 57.8744 12.759 58.2416 13.2077V12.1477L61.2814 12.0841ZM58.2416 17.1191C58.2626 16.6119 58.1325 16.11 57.8682 15.678C57.6039 15.2459 57.2173 14.9034 56.7583 14.6945C56.2992 14.4856 55.7887 14.4199 55.2923 14.5057C54.7958 14.5916 54.3363 14.8251 53.9726 15.1763C53.609 15.5275 53.3579 15.9803 53.2516 16.4765C53.1454 16.9726 53.1889 17.4895 53.3764 17.9605C53.564 18.4316 53.8872 18.8353 54.3043 19.1198C54.7214 19.4043 55.2134 19.5566 55.7171 19.5571C56.0458 19.5809 56.3757 19.535 56.6857 19.4224C56.9957 19.3098 57.2788 19.1328 57.5167 18.9031C57.7546 18.6733 57.942 18.3958 58.0669 18.0885C58.1917 17.7812 58.2512 17.451 58.2416 17.1191V17.1191Z" fill="white"/>
<path d="M63.059 17.3306C63.059 16.2295 63.3831 15.1532 63.9904 14.2378C64.5976 13.3224 65.4607 12.6091 66.4704 12.1882C67.4801 11.7673 68.5909 11.6577 69.6625 11.8733C70.734 12.0889 71.7179 12.62 72.4898 13.3993C73.2617 14.1787 73.7868 15.1713 73.9987 16.2515C74.2106 17.3317 74.0997 18.4509 73.6801 19.4676C73.2605 20.4843 72.5511 21.3527 71.6416 21.9629C70.7321 22.5731 69.6634 22.8977 68.5707 22.8956C67.8441 22.9027 67.1233 22.7636 66.4507 22.4863C65.7781 22.209 65.1672 21.7992 64.6539 21.2808C64.1405 20.7625 63.735 20.1461 63.4611 19.4678C63.1873 18.7895 63.0505 18.0629 63.059 17.3306ZM70.969 17.3306C70.9565 16.8551 70.8051 16.3938 70.5337 16.0046C70.2623 15.6154 69.8829 15.3156 69.4431 15.1427C69.0034 14.9698 68.5227 14.9316 68.0615 15.0327C67.6002 15.1339 67.1789 15.37 66.8502 15.7114C66.5215 16.0529 66.3001 16.4845 66.2138 16.9522C66.1274 17.4198 66.18 17.9028 66.3648 18.3405C66.5496 18.7783 66.8585 19.1513 67.2528 19.4129C67.6471 19.6744 68.1092 19.8129 68.5812 19.811C68.9023 19.8173 69.2213 19.7568 69.5181 19.6333C69.8149 19.5097 70.0833 19.3258 70.3064 19.093C70.5295 18.8603 70.7026 18.5836 70.8148 18.2803C70.9269 17.9771 70.9759 17.6538 70.9584 17.3306H70.969Z" fill="white"/>
<path d="M75.5449 9.2745C75.5449 8.90133 75.6547 8.53653 75.8605 8.22625C76.0662 7.91596 76.3586 7.67413 76.7007 7.53132C77.0429 7.38851 77.4193 7.35115 77.7825 7.42395C78.1457 7.49675 78.4793 7.67645 78.7412 7.94033C79.003 8.2042 79.1813 8.5404 79.2536 8.9064C79.3258 9.2724 79.2887 9.65178 79.147 9.99655C79.0053 10.3413 78.7653 10.636 78.4574 10.8433C78.1495 11.0506 77.7875 11.1613 77.4172 11.1613C76.9224 11.1558 76.4493 10.9552 76.0993 10.6026C75.7494 10.2499 75.5504 9.7732 75.5449 9.2745V9.2745ZM75.85 12.0835H79.0055V22.5775H75.85V12.0835Z" fill="white"/>
<path d="M92.5112 17.3309C92.5465 18.0288 92.4446 18.7269 92.2112 19.385C91.9778 20.043 91.6176 20.6481 91.1513 21.1653C90.685 21.6825 90.1217 22.1017 89.494 22.3987C88.8663 22.6957 88.1866 22.8647 87.4938 22.8959C86.9059 22.9353 86.3168 22.8405 85.7704 22.6184C85.224 22.3963 84.7344 22.0527 84.3382 21.6133V26.7967H81.1826V12.0839H84.3382V13.0697C84.735 12.6316 85.2249 12.2896 85.7714 12.0694C86.3178 11.8491 86.9067 11.7562 87.4938 11.7977C88.1838 11.829 88.8609 11.997 89.4864 12.292C90.112 12.587 90.6738 13.0033 91.1397 13.5171C91.6056 14.0309 91.9665 14.6322 92.2018 15.2866C92.4371 15.9409 92.5423 16.6356 92.5112 17.3309V17.3309ZM89.3556 17.3309C89.3432 16.8386 89.1868 16.3609 88.9061 15.9578C88.6255 15.5546 88.2329 15.2439 87.7778 15.0646C87.3226 14.8853 86.8251 14.8454 86.3475 14.9499C85.8699 15.0543 85.4336 15.2985 85.0931 15.6518C84.7527 16.0051 84.5233 16.4518 84.4337 16.9359C84.3441 17.4201 84.3983 17.9201 84.5895 18.3733C84.7807 18.8265 85.1004 19.2128 85.5085 19.4837C85.9166 19.7546 86.395 19.8981 86.8837 19.8961C87.2184 19.9104 87.5524 19.8533 87.8637 19.7284C88.1749 19.6036 88.4565 19.4138 88.6899 19.1716C88.9233 18.9294 89.1033 18.6402 89.218 18.323C89.3327 18.0057 89.3796 17.6677 89.3556 17.3309V17.3309Z" fill="white"/>
<path d="M102.115 19.4296C102.115 21.8464 100.011 22.8746 97.7812 22.8746C96.8717 22.9571 95.9586 22.7628 95.1598 22.3168C94.361 21.8709 93.7132 21.1938 93.3003 20.373L96.0141 18.8254C96.1216 19.2036 96.3547 19.5332 96.6745 19.7589C96.9942 19.9847 97.3812 20.0929 97.7707 20.0656C98.5175 20.0656 98.8962 19.8324 98.8962 19.4084C98.8962 18.253 93.7736 18.8678 93.7736 15.232C93.7736 12.9424 95.688 11.7976 97.8549 11.7976C98.6785 11.7604 99.4968 11.9487 100.223 12.3425C100.949 12.7363 101.555 13.3209 101.978 14.0342L99.2644 15.4758C99.1445 15.2023 98.9486 14.9697 98.7003 14.806C98.452 14.6424 98.162 14.5547 97.8654 14.5536C97.3184 14.5536 96.9923 14.7656 96.9923 15.1366C96.9923 16.345 102.115 15.55 102.115 19.4296Z" fill="white"/>
<path d="M113.548 12.084V22.578H110.393V21.5922C110.034 22.0285 109.579 22.3739 109.064 22.6004C108.548 22.8268 107.988 22.9281 107.426 22.896C105.323 22.896 103.524 21.3802 103.524 18.55V12.084H106.68V18.073C106.655 18.3234 106.684 18.5762 106.766 18.814C106.847 19.0518 106.979 19.2689 107.152 19.4503C107.325 19.6317 107.535 19.7731 107.768 19.8648C108 19.9564 108.25 19.996 108.499 19.981C109.635 19.981 110.435 19.3026 110.435 17.861V12.084H113.548Z" fill="white"/>
<path d="M131.43 16.1323V22.5771H128.275V16.4079C128.275 15.3479 127.78 14.6907 126.781 14.6907C125.782 14.6907 125.151 15.4221 125.151 16.6623V22.5771H121.995V16.4079C121.995 15.3479 121.501 14.6907 120.501 14.6907C119.502 14.6907 118.871 15.4221 118.871 16.6623V22.5771H115.715V12.0831H118.871V13.0477C119.198 12.6216 119.624 12.2841 120.113 12.0657C120.601 11.8473 121.136 11.755 121.669 11.7969C122.203 11.7689 122.734 11.8812 123.212 12.1227C123.69 12.3643 124.097 12.7269 124.393 13.1749C124.74 12.7069 125.199 12.335 125.726 12.094C126.254 11.853 126.834 11.7508 127.412 11.7969C129.873 11.7969 131.43 13.5141 131.43 16.1323Z" fill="white"/>
<path d="M14.0949 4.505V0H0V30.952H14.0949V26.447C11.2076 26.447 8.43851 25.2911 6.39684 23.2337C4.35518 21.1762 3.20818 18.3857 3.20818 15.476C3.20818 12.5663 4.35518 9.77579 6.39684 7.71833C8.43851 5.66087 11.2076 4.505 14.0949 4.505V4.505Z" fill="white"/>
<path d="M14.0947 4.50488V26.4469C16.9821 26.4469 19.7512 25.291 21.7928 23.2336C23.8345 21.1761 24.9815 18.3856 24.9815 15.4759C24.9815 12.5662 23.8345 9.77568 21.7928 7.71821C19.7512 5.66075 16.9821 4.50488 14.0947 4.50488V4.50488Z" fill="white"/>
<path d="M134.081 12.0205C135.359 12.0205 136.395 10.9764 136.395 9.68845C136.395 8.40052 135.359 7.35645 134.081 7.35645C132.803 7.35645 131.767 8.40052 131.767 9.68845C131.767 10.9764 132.803 12.0205 134.081 12.0205Z" fill="white"/>
</svg>
