<svg width="142" height="28" viewBox="0 0 142 28" fill="none" xmlns="http://www.w3.org/2000/svg">
<path d="M21.2903 12.2886C20.8938 12.6889 20.5901 13.1721 20.401 13.7037C20.2118 14.2353 20.1418 14.8022 20.1959 15.364L20.1771 15.3451C20.2327 16.0064 20.1438 16.672 19.9167 17.2953C19.6896 17.9187 19.3296 18.4847 18.862 18.954C18.3944 19.4233 17.8303 19.7846 17.2092 20.0125C16.5881 20.2405 15.925 20.3296 15.266 20.2738L15.2848 20.2927C14.4965 20.2191 13.7048 20.3912 13.0176 20.7857C12.3304 21.1802 11.7812 21.7778 11.4448 22.497C11.1084 23.2162 11.0012 24.022 11.1378 24.8046C11.2745 25.5872 11.6483 26.3084 12.2084 26.87C12.7684 27.4315 13.4874 27.8061 14.2674 27.9425C15.0473 28.079 15.8501 27.9707 16.5665 27.6324C17.2828 27.2942 17.8778 26.7424 18.2702 26.0524C18.6627 25.3623 18.8335 24.5676 18.7594 23.7766L18.7793 23.7955C18.7237 23.1342 18.8125 22.4686 19.0396 21.8453C19.2668 21.222 19.6267 20.6559 20.0943 20.1866C20.562 19.7173 21.126 19.356 21.7471 19.1281C22.3682 18.9002 23.0314 18.811 23.6904 18.8668L23.6705 18.8479C24.3144 18.906 24.9625 18.8001 25.5548 18.5399C26.147 18.2797 26.6642 17.8736 27.0585 17.3594C27.4527 16.8452 27.7113 16.2394 27.8101 15.5982C27.909 14.957 27.845 14.3011 27.624 13.6914C27.403 13.0816 27.0322 12.5377 26.546 12.1101C26.0598 11.6824 25.4739 11.3849 24.8426 11.245C24.2113 11.1051 23.555 11.1274 22.9346 11.3098C22.3142 11.4922 21.7497 11.8289 21.2934 12.2886H21.2903Z" fill="white"/>
<path d="M13.5717 17.8164L13.5519 17.7975C14.112 17.8542 14.6776 17.7852 15.2078 17.5956C15.7381 17.4059 16.2198 17.1004 16.618 16.7011C17.0162 16.3018 17.3209 15.8186 17.5103 15.2866C17.6996 14.7546 17.7688 14.187 17.7128 13.6248L17.7327 13.6437C17.6771 12.9824 17.7659 12.3168 17.993 11.6935C18.2202 11.0702 18.5801 10.5041 19.0477 10.0348C19.5154 9.56552 20.0794 9.20429 20.7005 8.97634C21.3216 8.74839 21.9848 8.65922 22.6438 8.71504L22.6239 8.69615C23.4122 8.77044 24.2042 8.59888 24.8918 8.20485C25.5794 7.81082 26.1291 7.21352 26.4661 6.49441C26.803 5.77529 26.9106 4.96939 26.7744 4.1866C26.6381 3.40382 26.2646 2.68228 25.7047 2.12039C25.1448 1.55849 24.4259 1.18361 23.6459 1.04687C22.8659 0.910128 22.0629 1.01819 21.3463 1.3563C20.6298 1.69442 20.0346 2.24614 19.642 2.93621C19.2494 3.62627 19.0784 4.42109 19.1524 5.21224L19.1336 5.19229C19.1894 5.85368 19.1007 6.51932 18.8736 7.14273C18.6466 7.76613 18.2866 8.33228 17.8189 8.80162C17.3513 9.27097 16.7872 9.6322 16.166 9.86008C15.5448 10.088 14.8815 10.177 14.2225 10.121L14.2413 10.1409C13.6813 10.0843 13.1156 10.1533 12.5854 10.3429C12.0551 10.5325 11.5735 10.8381 11.1753 11.2374C10.7771 11.6367 10.4723 12.1199 10.2829 12.6519C10.0936 13.1839 10.0244 13.7515 10.0804 14.3136L10.0616 14.2947C10.117 14.956 10.028 15.6215 9.80085 16.2448C9.57365 16.868 9.2137 17.434 8.74611 17.9033C8.27853 18.3725 7.71456 18.7338 7.09355 18.9618C6.47254 19.1898 5.80943 19.2791 5.15049 19.2235L5.16933 19.2423C4.381 19.1681 3.58902 19.3396 2.90142 19.7336C2.21382 20.1277 1.66407 20.725 1.32716 21.4441C0.990252 22.1632 0.882579 22.9691 1.01883 23.7519C1.15508 24.5347 1.52863 25.2562 2.08851 25.8181C2.6484 26.38 3.36737 26.7549 4.14735 26.8916C4.92734 27.0284 5.73037 26.9203 6.44691 26.5822C7.16345 26.2441 7.75862 25.6924 8.15124 25.0023C8.54386 24.3122 8.71481 23.5174 8.64078 22.7262L8.66066 22.7452C8.60503 22.0838 8.69389 21.4182 8.92102 20.7949C9.14815 20.1716 9.50809 19.6055 9.97572 19.1362C10.4433 18.6669 11.0074 18.3057 11.6285 18.0777C12.2496 17.8498 12.9128 17.7606 13.5717 17.8164V17.8164Z" fill="white"/>
<path d="M6.55987 15.709C6.95642 15.3087 7.26003 14.8255 7.44902 14.2939C7.63802 13.7623 7.70774 13.1954 7.6532 12.6336L7.67308 12.6525C7.61741 11.9909 7.70631 11.3252 7.93356 10.7017C8.16082 10.0782 8.52095 9.51202 8.98881 9.04268C9.45668 8.57334 10.021 8.21216 10.6423 7.98435C11.2637 7.75655 11.9271 7.66762 12.5863 7.72377L12.5664 7.70487C13.3544 7.77896 14.1461 7.6073 14.8334 7.2133C15.5207 6.8193 16.0701 6.22214 16.4068 5.50326C16.7435 4.78437 16.8511 3.97875 16.7148 3.19626C16.5786 2.41378 16.2052 1.69251 15.6455 1.13082C15.0858 0.569133 14.3671 0.194368 13.5874 0.0576327C12.8077 -0.0791023 12.005 0.028849 11.2887 0.366764C10.5724 0.704679 9.97733 1.25611 9.58474 1.94585C9.19215 2.6356 9.0211 3.43009 9.09493 4.22097L9.0761 4.20207C9.13173 4.86341 9.04287 5.52897 8.81574 6.1523C8.5886 6.77562 8.22866 7.34169 7.76103 7.81099C7.29341 8.28029 6.72936 8.64152 6.10827 8.86947C5.48717 9.09742 4.82399 9.18659 4.16501 9.13077L4.18384 9.14967C3.53995 9.09172 2.8919 9.19782 2.29974 9.45814C1.70758 9.71845 1.19048 10.1246 0.796347 10.6388C0.402215 11.1531 0.143805 11.7589 0.0450646 12.4001C-0.0536755 13.0413 0.0104481 13.6971 0.231494 14.3068C0.45254 14.9165 0.823356 15.4603 1.30958 15.8879C1.7958 16.3154 2.3817 16.6129 3.01298 16.7528C3.64427 16.8926 4.3005 16.8703 4.92089 16.6878C5.54128 16.5053 6.10574 16.1687 6.56196 15.709H6.55987Z" fill="white"/>
<path d="M38.9697 5.23633H42.0771V20.412H38.9697V5.23633Z" fill="white"/>
<path d="M43.8366 15.216C43.8322 14.1254 44.1505 13.0581 44.751 12.1492C45.3516 11.2403 46.2075 10.5307 47.2102 10.1103C48.2129 9.68993 49.3174 9.57768 50.3837 9.78776C51.45 9.99784 52.4302 10.5208 53.2002 11.2904C53.9701 12.06 54.4952 13.0417 54.7088 14.111C54.9224 15.1803 54.8149 16.2891 54.4001 17.2971C53.9853 18.3051 53.2816 19.1669 52.3784 19.7732C51.4752 20.3796 50.4129 20.7033 49.3262 20.7033C48.6049 20.7115 47.8892 20.5754 47.2208 20.3028C46.5525 20.0303 45.9451 19.6267 45.4339 19.1158C44.9228 18.6049 44.5183 17.9969 44.244 17.3273C43.9698 16.6577 43.8312 15.9399 43.8366 15.216V15.216ZM51.7085 15.216C51.6956 14.7459 51.5448 14.2901 51.2752 13.9055C51.0055 13.5209 50.6288 13.2247 50.1923 13.0538C49.7557 12.8829 49.2787 12.8449 48.8208 12.9446C48.3628 13.0443 47.9443 13.2773 47.6176 13.6144C47.2909 13.9515 47.0705 14.3778 46.9838 14.8399C46.8972 15.3021 46.9482 15.7796 47.1306 16.2128C47.3129 16.646 47.6184 17.0157 48.0089 17.2756C48.3995 17.5355 48.8577 17.674 49.3262 17.674C49.6472 17.6826 49.9664 17.6244 50.2637 17.503C50.5611 17.3816 50.8302 17.1997 51.054 16.9688C51.2778 16.7379 51.4515 16.4629 51.5642 16.1612C51.6769 15.8595 51.726 15.5377 51.7085 15.216V15.216Z" fill="white"/>
<path d="M67.2004 10.0189V19.8889C67.2004 23.3812 64.4864 24.8575 61.7317 24.8575C60.7617 24.9303 59.7905 24.7337 58.9246 24.2892C58.0587 23.8447 57.3314 23.1694 56.8226 22.3375L59.4738 20.7992C59.6877 21.2329 60.0284 21.5907 60.4504 21.8246C60.8724 22.0586 61.3556 22.1577 61.8352 22.1086C62.1418 22.1512 62.454 22.1241 62.7487 22.0293C63.0434 21.9345 63.3131 21.7744 63.5378 21.5609C63.7625 21.3473 63.9365 21.0858 64.0469 20.7957C64.1574 20.5055 64.2014 20.1942 64.1757 19.8847V18.9344C63.8118 19.3812 63.3487 19.7362 62.8234 19.9709C62.2981 20.2056 61.7253 20.3134 61.151 20.2858C59.7844 20.2425 58.4882 19.6673 57.5367 18.6818C56.5853 17.6964 56.0532 16.378 56.0532 15.0058C56.0532 13.6337 56.5853 12.3153 57.5367 11.3299C58.4882 10.3444 59.7844 9.76918 61.151 9.72592C61.7253 9.69826 62.2981 9.8061 62.8234 10.0408C63.3487 10.2755 63.8118 10.6305 64.1757 11.0773V10.0168L67.2004 10.0189ZM64.1767 15.0074C64.1976 14.5048 64.0682 14.0075 63.805 13.5794C63.5419 13.1513 63.1571 12.812 62.7002 12.6052C62.2433 12.3984 61.7352 12.3336 61.2412 12.4191C60.7473 12.5046 60.2902 12.7364 59.9287 13.0848C59.5671 13.4332 59.3178 13.8823 59.2127 14.3741C59.1076 14.8659 59.1516 15.3781 59.339 15.8446C59.5264 16.3111 59.8487 16.7107 60.2642 16.9919C60.6798 17.2731 61.1698 17.423 61.671 17.4224C61.9975 17.4453 62.3251 17.3993 62.6328 17.2874C62.9405 17.1754 63.2214 17.0001 63.4575 16.7726C63.6935 16.545 63.8795 16.2704 64.0034 15.9664C64.1272 15.6624 64.1863 15.3357 64.1767 15.0074V15.0074Z" fill="white"/>
<path d="M68.9601 15.216C68.9558 14.1254 69.274 13.0581 69.8746 12.1492C70.4751 11.2403 71.331 10.5307 72.3337 10.1103C73.3364 9.68993 74.4409 9.57768 75.5072 9.78776C76.5736 9.99784 77.5538 10.5208 78.3237 11.2904C79.0937 12.06 79.6187 13.0417 79.8323 14.111C80.0459 15.1803 79.9385 16.2891 79.5236 17.2971C79.1088 18.3051 78.4052 19.1669 77.5019 19.7732C76.5987 20.3796 75.5365 20.7033 74.4498 20.7033C73.7284 20.7115 73.0127 20.5754 72.3444 20.3028C71.6761 20.0303 71.0686 19.6267 70.5575 19.1158C70.0463 18.6049 69.6418 17.9969 69.3676 17.3273C69.0933 16.6577 68.9548 15.9399 68.9601 15.216V15.216ZM76.8321 15.216C76.8191 14.7459 76.6684 14.2901 76.3987 13.9055C76.129 13.5209 75.7523 13.2247 75.3158 13.0538C74.8793 12.8829 74.4022 12.8449 73.9443 12.9446C73.4864 13.0443 73.0679 13.2773 72.7412 13.6144C72.4144 13.9515 72.194 14.3778 72.1074 14.8399C72.0207 15.3021 72.0718 15.7796 72.2541 16.2128C72.4364 16.646 72.742 17.0157 73.1325 17.2756C73.523 17.5355 73.9812 17.674 74.4498 17.674C74.7707 17.6826 75.0899 17.6244 75.3873 17.503C75.6846 17.3816 75.9537 17.1997 76.1775 16.9688C76.4014 16.7379 76.5751 16.4629 76.6877 16.1612C76.8004 15.8595 76.8495 15.5377 76.8321 15.216Z" fill="white"/>
<path d="M81.3887 7.23243C81.3887 6.86236 81.498 6.50061 81.7029 6.1929C81.9077 5.8852 82.1989 5.64538 82.5396 5.50376C82.8803 5.36214 83.2552 5.32508 83.6168 5.39728C83.9785 5.46948 84.3107 5.64769 84.5714 5.90936C84.8322 6.17104 85.0097 6.50444 85.0817 6.86739C85.1536 7.23035 85.1167 7.60657 84.9756 7.94847C84.8345 8.29037 84.5955 8.58259 84.2889 8.78819C83.9823 8.99379 83.6218 9.10353 83.2531 9.10353C82.7601 9.09861 82.2888 8.89989 81.9402 8.55006C81.5916 8.20022 81.3936 7.72715 81.3887 7.23243V7.23243ZM81.7025 10.0181H84.811V20.4131H81.6984L81.7025 10.0181Z" fill="white"/>
<path d="M98.2281 15.2158C98.264 15.9028 98.1642 16.5902 97.9345 17.2383C97.7048 17.8865 97.3497 18.4827 96.8896 18.9926C96.4295 19.5026 95.8735 19.9162 95.2535 20.2098C94.6336 20.5033 93.9619 20.671 93.2772 20.7031C92.7014 20.7347 92.1258 20.6372 91.5921 20.4178C91.0585 20.1984 90.5801 19.8626 90.1918 19.4347V24.5703H87.0845V10.0183H90.1918V10.9948C90.5803 10.5672 91.0587 10.2317 91.5923 10.0125C92.126 9.79332 92.7015 9.69596 93.2772 9.72747C93.9621 9.75946 94.6339 9.92706 95.254 10.2206C95.8741 10.5142 96.4302 10.9279 96.8903 11.438C97.3504 11.9481 97.7055 12.5445 97.9351 13.1928C98.1647 13.8412 98.2643 14.5287 98.2281 15.2158V15.2158ZM95.1207 15.2158C95.1086 14.7293 94.9537 14.2572 94.6755 13.8586C94.3974 13.46 94.0082 13.1526 93.5568 12.9749C93.1054 12.7971 92.6118 12.757 92.1377 12.8594C91.6637 12.9618 91.2303 13.2023 90.8917 13.5507C90.5532 13.8991 90.3246 14.34 90.2345 14.8181C90.1444 15.2963 90.1968 15.7905 90.3852 16.2389C90.5736 16.6873 90.8896 17.07 91.2937 17.3391C91.6977 17.6081 92.1719 17.7516 92.6568 17.7516C92.9897 17.7664 93.322 17.7105 93.6318 17.5875C93.9417 17.4645 94.2221 17.2771 94.4548 17.0376C94.6874 16.7982 94.867 16.5121 94.9818 16.1982C95.0965 15.8842 95.1439 15.5494 95.1207 15.2158V15.2158Z" fill="white"/>
<path d="M107.817 17.2942C107.817 19.685 105.746 20.7035 103.51 20.7035C102.606 20.7857 101.698 20.5938 100.904 20.1528C100.11 19.7118 99.4662 19.0419 99.0557 18.2297L101.748 16.6915C101.857 17.0669 102.09 17.3935 102.41 17.6167C102.73 17.8399 103.117 17.9462 103.505 17.9179C104.25 17.9179 104.624 17.689 104.624 17.2742C104.624 16.1297 99.5275 16.7335 99.5275 13.1372C99.5275 10.8703 101.434 9.72786 103.588 9.72786C104.398 9.70214 105.2 9.89491 105.91 10.2861C106.62 10.6772 107.213 11.2524 107.627 11.9518L104.975 13.3861C104.859 13.1138 104.666 12.8819 104.419 12.7192C104.172 12.5566 103.883 12.4704 103.588 12.4715C103.049 12.4715 102.718 12.6815 102.718 13.0532C102.722 14.2387 107.817 13.448 107.817 17.2942Z" fill="white"/>
<path d="M119.168 10.0186V20.4136H116.061V19.436C115.702 19.8674 115.247 20.2072 114.732 20.4277C114.217 20.6482 113.658 20.743 113.1 20.7044C111.007 20.7044 109.229 19.2082 109.229 16.3994V10.0186H112.336V15.9427C112.31 16.1902 112.338 16.4405 112.418 16.6761C112.498 16.9117 112.629 17.1269 112.8 17.3068C112.972 17.4867 113.18 17.6269 113.411 17.7177C113.642 17.8085 113.89 17.8478 114.138 17.8327C115.277 17.8327 116.064 17.168 116.064 15.6917V10.0217L119.168 10.0186Z" fill="white"/>
<path d="M136.985 14.0301V20.412H133.878V14.3C133.878 13.2605 133.381 12.5958 132.387 12.5958C131.351 12.5958 130.771 13.3235 130.771 14.5499V20.412H127.664V14.3C127.664 13.2605 127.167 12.5958 126.172 12.5958C125.137 12.5958 124.557 13.3235 124.557 14.5499V20.412H121.45V10.017H124.557V10.9725C124.879 10.5486 125.302 10.2124 125.787 9.99472C126.272 9.77701 126.803 9.68467 127.333 9.72615C127.864 9.70005 128.394 9.81265 128.869 10.053C129.345 10.2933 129.75 10.6532 130.046 11.0975C130.39 10.6326 130.846 10.2631 131.371 10.0232C131.897 9.78342 132.474 9.6812 133.049 9.72615C135.428 9.7272 136.985 11.4314 136.985 14.0301Z" fill="white"/>
<path d="M139.614 9.95457C140.887 9.95457 141.919 8.91847 141.919 7.64037C141.919 6.36227 140.887 5.32617 139.614 5.32617C138.34 5.32617 137.308 6.36227 137.308 7.64037C137.308 8.91847 138.34 9.95457 139.614 9.95457Z" fill="white"/>
</svg>
