<svg width="1024" height="768" viewBox="0 0 1024 768" fill="none" xmlns="http://www.w3.org/2000/svg">
<path d="M1024 0H0V768H1024V0Z" fill="#0B0A0C"/>
<path fill-rule="evenodd" clip-rule="evenodd" d="M543.411 354.98H480.406C480.171 354.98 479.98 355.171 479.98 355.406V413.303C479.98 413.538 480.171 413.729 480.406 413.729H492.288L518.68 385.828C520.551 383.851 523.676 383.779 525.635 385.668L543.837 403.22V355.406C543.837 355.171 543.646 354.98 543.411 354.98ZM493.408 416.881L493.226 416.709H480.406C478.525 416.709 477 415.184 477 413.303V355.406C477 353.525 478.525 352 480.406 352H543.411C545.292 352 546.817 353.525 546.817 355.406V406.094L547 406.27L546.817 406.46V413.303C546.817 415.184 545.292 416.709 543.411 416.709H493.571L493.408 416.881ZM523.567 387.814L543.837 407.36V413.303C543.837 413.538 543.646 413.729 543.411 413.729H533.973L513.924 395.193L520.845 387.876C521.577 387.102 522.8 387.074 523.567 387.814ZM496.39 413.729H529.583L511.876 397.358L496.39 413.729ZM506.374 375.84C506.374 378.897 503.897 381.374 500.84 381.374C497.784 381.374 495.306 378.897 495.306 375.84C495.306 372.784 497.784 370.306 500.84 370.306C503.897 370.306 506.374 372.784 506.374 375.84ZM509.354 375.84C509.354 380.542 505.542 384.354 500.84 384.354C496.138 384.354 492.326 380.542 492.326 375.84C492.326 371.138 496.138 367.326 500.84 367.326C505.542 367.326 509.354 371.138 509.354 375.84Z" fill="white" fill-opacity="0.6"/>
</svg>
