<svg width="69" height="60" viewBox="0 0 69 60" fill="none" xmlns="http://www.w3.org/2000/svg">
<g clip-path="url(#clip0)">
<path d="M59.31 43.63C59.2798 43.1844 59.1375 42.7536 58.8962 42.3777C58.6549 42.0018 58.3226 41.693 57.93 41.48C56.4665 40.6164 54.8504 40.0427 53.17 39.79C50.251 39.2956 47.4679 38.1953 45 36.56C44.0913 35.8214 43.3677 34.8807 42.8868 33.813C42.4059 32.7453 42.181 31.58 42.23 30.41C42.2617 29.0707 42.5786 27.7535 43.1598 26.5464C43.7409 25.3393 44.5728 24.27 45.6 23.41C48.2152 21.3883 51.4825 20.3989 54.78 20.63C58.2208 20.4462 61.6233 21.4254 64.44 23.41C65.6026 24.2041 66.5305 25.2959 67.1269 26.5712C67.7232 27.8466 67.966 29.2587 67.83 30.66V30.81H58.7C58.743 30.3046 58.6846 29.7958 58.5284 29.3132C58.3721 28.8307 58.1211 28.3842 57.79 28C56.9595 27.2867 55.8824 26.9276 54.79 27C53.8325 27.0006 52.9094 27.357 52.2 28C51.8678 28.2448 51.6023 28.5689 51.4276 28.9427C51.2529 29.3165 51.1747 29.7282 51.2 30.14C51.2145 30.5728 51.334 30.9956 51.5483 31.3719C51.7626 31.7482 52.0652 32.0667 52.43 32.3C53.905 33.1179 55.5252 33.641 57.2 33.84C60.1608 34.2638 62.9896 35.3434 65.48 37C66.4067 37.7565 67.1408 38.7219 67.6223 39.817C68.1038 40.9121 68.3189 42.1057 68.25 43.3C68.253 44.6591 67.9249 45.9986 67.2942 47.2025C66.6635 48.4064 65.7491 49.4387 64.63 50.21C61.7629 52.2086 58.3097 53.1907 54.82 53C51.2042 53.18 47.6473 52.0312 44.82 49.77C43.712 48.9259 42.8261 47.8247 42.2389 46.5615C41.6518 45.2984 41.381 43.9112 41.45 42.52V42.37H50.21C50.1225 42.9601 50.2059 43.5629 50.4505 44.1071C50.6951 44.6512 51.0905 45.1138 51.59 45.44C52.6897 46.0932 53.9325 46.4674 55.21 46.53C56.2421 46.5934 57.2669 46.3196 58.13 45.75C58.5146 45.5533 58.8321 45.2468 59.0422 44.8693C59.2523 44.4919 59.3455 44.0605 59.31 43.63V43.63ZM22.31 52.54V28H17.83V21.2H22.27V18C22.2014 16.4789 22.4426 14.9598 22.979 13.5347C23.5153 12.1097 24.3356 10.8084 25.39 9.71C27.5502 8.00514 30.2506 7.13222 33 7.25H39.15V15.05H35.55C35.0513 15.0142 34.5504 15.0781 34.0766 15.2377C33.6027 15.3974 33.1654 15.6497 32.79 15.98C32.4595 16.3533 32.207 16.7888 32.0473 17.2611C31.8876 17.7333 31.8239 18.2328 31.86 18.73V21.06H37.86V27.8H31.86V52.23H22.27V52.59L22.31 52.54ZM3.84 10.14C3.84 0.76 8.76 0 17.05 0V7.38C13.22 7.38 11.61 7.98 11.61 10.3V22.43C11.61 25.19 11.75 28.11 9.45 29.96C11.75 31.77 11.61 34.57 11.61 37.49V49.62C11.61 52.09 13.15 52.54 17.05 52.54V59.85C8.76 59.85 3.84 59.07 3.84 49.71V37.49C3.84 35.49 3.84 33.33 0 33.33V26.88C3.84 26.88 3.84 24.57 3.84 22.74V10.14Z" fill="white"/>
</g>
<defs>
<clipPath id="clip0">
<rect width="68.27" height="59.85" fill="white"/>
</clipPath>
</defs>
</svg>
